<?xml version="1.0" standalone="no"?><!DOCTYPE svg PUBLIC "-//W3C//DTD SVG 1.1//EN" "http://www.w3.org/Graphics/SVG/1.1/DTD/svg11.dtd"><svg class="icon" width="200px" height="200.00px" viewBox="0 0 1024 1024" version="1.1" xmlns="http://www.w3.org/2000/svg"><path fill="#333333" d="M278.53 97h25.97c100.26-0.04 181.56 81.21 181.59 181.46v207.57H278.6c-100.26 0.04-181.56-81.21-181.6-181.46v-26.04C97 178.28 178.28 97 278.53 97z m0 440.9h207.5v207.5c0.04 100.26-81.21 181.56-181.46 181.59H278.54C178.28 927 97 845.72 97 745.47V719.5c-0.04-100.26 81.21-181.56 181.46-181.59 0.03-0.01 0.05-0.01 0.07-0.01zM719.5 97h25.97C845.72 97 927 178.28 927 278.53v25.97c0.04 100.25-81.21 181.56-181.46 181.59H537.97V278.6C537.93 178.34 619.18 97.04 719.43 97h0.07zM537.9 537.9h207.5c100.25-0.04 181.56 81.21 181.59 181.46V745.46C927 845.72 845.72 927 745.47 927H719.5c-100.25 0.04-181.56-81.21-181.59-181.46V537.9z"  /></svg>